<?xml version="1.0" standalone="no"?>
<!DOCTYPE svg PUBLIC "-//W3C//DTD SVG 20010904//EN"
 "http://www.w3.org/TR/2001/REC-SVG-20010904/DTD/svg10.dtd">
<svg version="1.0" xmlns="http://www.w3.org/2000/svg"
 width="2083.000000pt" height="972.000000pt" viewBox="0 0 2083.000000 972.000000"
 preserveAspectRatio="xMidYMid meet">

<g transform="translate(0.000000,972.000000) scale(0.100000,-0.100000)"
fill="#000000" stroke="none">
<path d="M0 4860 l0 -4860 695 0 695 0 0 4860 0 4860 -695 0 -695 0 0 -4860z"/>
<path d="M2780 4860 l0 -4860 695 0 695 0 0 4860 0 4860 -695 0 -695 0 0
-4860z"/>
<path d="M5550 4860 l0 -4860 700 0 700 0 0 4860 0 4860 -700 0 -700 0 0
-4860z"/>
<path d="M8330 4860 l0 -4860 695 0 695 0 0 4860 0 4860 -695 0 -695 0 0
-4860z"/>
<path d="M11110 9025 l0 -695 4860 0 4860 0 0 695 0 695 -4860 0 -4860 0 0
-695z"/>
<path d="M11110 6245 l0 -695 4860 0 4860 0 0 695 0 695 -4860 0 -4860 0 0
-695z"/>
<path d="M11110 3470 l0 -700 4860 0 4860 0 0 700 0 700 -4860 0 -4860 0 0
-700z"/>
<path d="M11110 695 l0 -695 4860 0 4860 0 0 695 0 695 -4860 0 -4860 0 0
-695z"/>
</g>
</svg>
